<svg xmlns="http://www.w3.org/2000/svg" xmlns:xlink="http://www.w3.org/1999/xlink" width="100" height="100" viewBox="0 0 100 100">
  <defs>
    <clipPath id="clip-mail-icon">
      <rect width="100" height="100"/>
    </clipPath>
  </defs>
  <g id="mail-icon" clip-path="url(#clip-mail-icon)">
    <circle id="Ellipse_1" data-name="Ellipse 1" cx="48" cy="48" r="48" transform="translate(2 2)" fill="#e6e6e6"/>
    <g id="mail-icon-2" data-name="mail-icon" transform="translate(23.923 28.976)">
      <path id="Path_60" data-name="Path 60" d="M51.154,7.655v.268L27.694,23.186a3.225,3.225,0,0,1-3.234,0L1,7.923V7.655A5.655,5.655,0,0,1,6.655,2H45.5a5.655,5.655,0,0,1,5.655,5.655Z" fill="#666"/>
      <path id="Path_61" data-name="Path 61" d="M29.579,27.655,51.154,13.62V35.965A5.655,5.655,0,0,1,45.5,41.62H6.655A5.655,5.655,0,0,1,1,35.965V13.62L22.618,27.655a6.667,6.667,0,0,0,7,0Z" transform="translate(0 -1.572)" fill="#666"/>
    </g>
  </g>
</svg>
