<svg xmlns="http://www.w3.org/2000/svg" xmlns:xlink="http://www.w3.org/1999/xlink" width="100" height="100" viewBox="0 0 100 100">
  <defs>
    <clipPath id="clip-twitter-icon">
      <rect width="100" height="100"/>
    </clipPath>
  </defs>
  <g id="twitter-icon" clip-path="url(#clip-twitter-icon)">
    <circle id="Ellipse_1" data-name="Ellipse 1" cx="48" cy="48" r="48" transform="translate(2 2)" fill="#e6e6e6"/>
    <g id="Twitter_Logo_Blue" transform="translate(8.73 8.73)">
      <rect id="Rectangle_15" data-name="Rectangle 15" width="82" height="82" transform="translate(0.27 0.27)" fill="none"/>
      <path id="Path_62" data-name="Path 62" d="M91.223,140.368c19.467,0,30.114-16.128,30.114-30.114,0-.458,0-.914-.031-1.368a21.534,21.534,0,0,0,5.28-5.479,21.126,21.126,0,0,1-6.079,1.665,10.621,10.621,0,0,0,4.653-5.854,21.211,21.211,0,0,1-6.721,2.569A10.594,10.594,0,0,0,100.4,111.44,30.048,30.048,0,0,1,78.59,100.382a10.592,10.592,0,0,0,3.277,14.129,10.505,10.505,0,0,1-4.8-1.325v.134a10.588,10.588,0,0,0,8.491,10.375,10.567,10.567,0,0,1-4.779.182,10.6,10.6,0,0,0,9.888,7.35,21.237,21.237,0,0,1-13.144,4.54,21.544,21.544,0,0,1-2.52-.153,29.964,29.964,0,0,0,16.223,4.746" transform="translate(-59.524 -78.135)" fill="#666"/>
    </g>
  </g>
</svg>
